{"title":"Baahubali (2015) - 1CDRip CAM x264 AAC[HDMaN]","uid":12111794,"size":737639842,"categoryP":"video","categoryS":"hd___movies","magnet":"?xt=urn:btih:70ebf2e0c2e3dcff52b2acc0bbc60c88823b6f70&amp;dn=Baahubali+%282015%29+-+1CDRip+CAM+x264+AAC%5BHDMaN%5D&amp;tr=udp%3A%2F%2Ftracker.openbittorrent.com%3A80&amp;tr=udp%3A%2F%2Fopen.demonii.com%3A1337&amp;tr=udp%3A%2F%2Ftracker.coppersurfer.tk%3A6969&amp;tr=udp%3A%2F%2Fexodus.desync.com%3A6969","seeders":0,"leechers":0,"uploader":"Urmit","files":8,"time":1436593198,"description":"[center][img]http://i.imgur.com/40LfRQY.jpg[/img]\n\n[size=6][color=blue][b]Baahubali (2015) - 1CDRip CAM x264 AAC[HDMaN][/b][/color][/size]\n\n[code]Format                      : Matroska\nFormat version              : Version 4 / Version 2\nFile size                   : 703 MiB\nDuration                    : 2h 33mn\nOverall bit rate            : 640 Kbps\nMovie name                  : -=HDMaN=-\nEncoded date                : UTC 2015-07-11 03:31:10\nWriting application         : mkvmerge v8.1.0 ('Psychedelic Postcard') 64bit\nWriting library             : libebml v1.3.1 + libmatroska v1.4.2\nDURATION                    : 02:33:43.128000000\nNUMBER_OF_FRAMES            : 384297\nNUMBER_OF_BYTES             : 147570048\n_STATISTICS_WRITING_APP     : mkvmerge v8.1.0 ('Psychedelic Postcard') 64bit\n_STATISTICS_WRITING_DATE_UT : 2015-07-11 03:31:10\n_STATISTICS_TAGS            : BPS DURATION NUMBER_OF_FRAMES NUMBER_OF_BYTES\n\n[ * Video ]\nID                          : 1\nFormat                      : AVC\nFormat/Info                 : Advanced Video Codec\nFormat profile              : High@L3\nFormat settings, CABAC      : Yes\nFormat settings, ReFrames   : 4 frames\nCodec ID                    : V_MPEG4/ISO/AVC\nDuration                    : 2h 32mn\nBit rate                    : 251 Kbps\nWidth                       : 640 pixels\nHeight                      : 272 pixels\nDisplay aspect ratio        : 2.35:1\nFrame rate mode             : Constant\nFrame rate                  : 29.970 fps\nColor space                 : YUV\nChroma subsampling          : 4:2:0\nBit depth                   : 8 bits\nScan type                   : Progressive\nBits/(Pixel*Frame)          : 0.048\nStream size                 : 263 MiB (38%)\nTitle                       : -=HDMaN=-\nWriting library             : x264 core 146 r2538 121396c\nDefault                     : Yes\nForced                      : No\n\n\n[ * Audio ]\nID                          : 2\nFormat                      : AC-3\nFormat/Info                 : Audio Coding 3\nMode extension              : CM (complete main)\nFormat settings, Endianness : Big\nCodec ID                    : A_AC3\nDuration                    : 2h 32mn\nBit rate mode               : Constant\nBit rate                    : 384 Kbps\nChannel(s)                  : 6 channels\nChannel positions           : Front: L C R, Side: L R, LFE\nSampling rate               : 48.0 KHz\nCompression mode            : Lossy\nStream size                 : 420 MiB (60%)\nTitle                       : -=HDMaN=-\nDefault                     : Yes\nForced                      : No\n\n\nNote: &quot;JPEG&quot; less quality, don't judge by this.[/code]\n\n\n[img]http://i.imgur.com/Gm6bnNg.jpg[/img]\n[img]http://i.imgur.com/BBP7USv.jpg[/img]\n[img]http://i.imgur.com/MzRBiS5.jpg[/img]\n[img]http://i.imgur.com/wBmDSWV.jpg[/img][/center]","torrent":{"xt":"urn:btih:70ebf2e0c2e3dcff52b2acc0bbc60c88823b6f70","amp;dn":"Baahubali+%282015%29+-+1CDRip+CAM+x264+AAC%5BHDMaN%5D","amp;tr":["udp%3A%2F%2Ftracker.openbittorrent.com%3A80","udp%3A%2F%2Fopen.demonii.com%3A1337","udp%3A%2F%2Ftracker.coppersurfer.tk%3A6969","udp%3A%2F%2Fexodus.desync.com%3A6969"],"infoHash":"70ebf2e0c2e3dcff52b2acc0bbc60c88823b6f70","infoHashBuffer":{"type":"Buffer","data":[112,235,242,224,194,227,220,255,82,178,172,192,187,198,12,136,130,59,111,112]},"announce":[],"urlList":[]}}